# xmcd
#
# Track frame offsets: 
#        150
#        16772
#        35825
#        51405
#        70742
#        89715
#        103105
#        121617
#        138255
#        155200
#        174690
#        191487
#        210095
#        227825
#        248532
#        271505
#        287387
#        302750
#
# Disc length: 4279 seconds
#
# Revision: 6
# Processed by: cddbd v1.5.2PL0 Copyright (c) Steve Scherf et al.
# Submitted via: ExactAudioCopyFreeDBPlugin 1.0
#
DISCID=f110b512
DTITLE=Destiny's Child - Survivor
DYEAR=2001
DGENRE=R&B
TTITLE0=Independent Woman Part 1
TTITLE1=Survivor
TTITLE2=Bootylicious
TTITLE3=Nasty Girl
TTITLE4=Fancy
TTITLE5=Apple Pie à La Mode
TTITLE6=Sexy Daddy
TTITLE7=Perfect Man
TTITLE8=Independent Woman Part 2
TTITLE9=Happy Face
TTITLE10=Dance With Me
TTITLE11=My Heart Still Beats (feat. Beyoncé)
TTITLE12=Emotion
TTITLE13=Brown Eyes
TTITLE14=Dangerously in Love
TTITLE15=Story of Beauty
TTITLE16=Gospel Medley
TTITLE17=Outro (DC-3) Thank You
EXTD=YEAR: 2001 ID3G: 14
EXTT0=
EXTT1=
EXTT2=
EXTT3=
EXTT4=
EXTT5=
EXTT6=
EXTT7=
EXTT8=
EXTT9=
EXTT10=
EXTT11=
EXTT12=
EXTT13=
EXTT14=
EXTT15=
EXTT16=
EXTT17=
PLAYORDER=
